<!-- Generated by IcoMoon.io -->
<svg version="1.1" xmlns="http://www.w3.org/2000/svg" width="1024" height="1024" viewBox="0 0 1024 1024">
<g id="icomoon-ignore">
</g>
<path d="M963.708 580.796c-6.322-5.362-15.784-4.58-21.142 1.736-5.358 6.318-4.582 15.786 1.738 21.142 32.466 27.536 49.652 58.354 49.696 89.124 0.030 20.656-7.376 38.118-22.642 53.382-25.526 25.528-73.024 44.542-141.174 56.52-61.178 10.75-137.796 15.968-234.304 15.776-148.998-0.202-254.106-13.096-319.87-39.312 25.332-18.024 52.434-39.658 81.498-65.046 8.798 10.526 21.412 17.482 35.552 18.91 29.368 2.966 55.796-18.776 58.63-48.316 1.894-19.754 1.936-39.646 0.15-59.246 26.33-26.268 50.080-51.064 71.428-74.584 12.024 20.58 20.304 42.27 24.644 64.708 3.706 19.122 4.62 38.918 2.714 58.842-2.816 29.52 18.746 55.948 48.182 58.922 29.296 2.96 55.514-18.616 58.38-48.358 2.912-30.198 1.504-60.42-4.184-89.83-6-30.976-16.794-60.882-32.132-89.234 28.804 0.9 56.978 3.242 84.174 6.97 25.042 31.732 40.486 66.286 45.876 102.796 2.844 19.27 2.868 39.082 0.066 58.888-4.15 29.366 16.208 56.738 45.396 61.022 28.96 4.25 56.422-16.060 60.602-45.63 4.254-30.1 4.2-60.352-0.164-89.914-2.626-17.784-6.85-35.38-12.606-52.608 14.92 5.728 29.142 11.998 42.53 18.81 7.27 3.7 16.366 0.91 20.17-6.566 3.758-7.382 0.818-16.414-6.566-20.172-82.434-41.952-196.392-65.074-313.522-63.982 8.072-10.46 15.59-20.654 22.56-30.596 43.934-62.672 65.292-114.032 65.292-157.012 0-29.552-10.28-54.79-30.552-75.006-42.416-42.302-114.226-48.968-202.196-18.774-84.378 28.96-174.782 88.724-254.556 168.28-115.576 115.264-187.376 250.606-187.376 353.21 0 42.55 12.954 77.96 37.464 102.402 20.33 20.274 45.33 30.408 74.806 30.406 31.204 0 67.424-11.356 108.426-34.062 8.404-4.654 17.034-9.798 25.888-15.408 68.406 33.058 182.828 49.266 349.254 49.49 95.128 0.128 178.012-5.416 239.538-16.228 75.386-13.248 126.804-34.462 157.194-64.854 20.896-20.896 31.47-46.008 31.428-74.638-0.056-39.842-20.904-78.556-60.29-111.96zM807.3 534.828c9.648 22.502 16.344 45.882 19.848 69.616 3.944 26.716 3.99 54.082 0.136 81.334-1.844 13.044-13.704 22.030-26.556 20.144-12.894-1.89-21.88-14.066-20.034-27.136 3.204-22.654 3.172-45.354-0.094-67.47-4.738-32.098-16.18-62.744-34.064-91.508 21.066 4.148 41.384 9.162 60.764 15.020zM421.828 681.848c-1.17 12.242-11.178 21.466-23.302 21.466-7.424 0-14.156-3.404-18.604-9.168 13.962-12.676 28.36-26.176 43.212-40.51 0.018 9.4-0.404 18.822-1.306 28.212zM623.552 600.864c5.14 26.582 6.412 53.918 3.776 81.264-1.26 13.080-12.708 22.67-25.62 21.366-12.954-1.308-22.47-13.068-21.216-26.208 2.178-22.784 1.126-45.458-3.124-67.398-5.58-28.846-16.76-56.524-33.256-82.444 6.286-7.222 12.344-14.326 18.158-21.306 7.858-0.298 15.788-0.516 23.76-0.594 18.448 29.956 31.066 61.986 37.522 95.32zM379.296 254.516c22.716 9.088 43.964 20.878 63.204 35.168 21.678 16.104 41.060 35.42 57.608 57.416 7.396 9.832 6.222 23.39-2.73 31.538-10.284 9.358-26.726 7.67-35.158-3.54-13.754-18.284-29.828-34.312-47.774-47.64-26.034-19.336-55.778-32.914-88.74-40.608 17.826-11.954 35.74-22.766 53.59-32.334zM84.98 543.65c23.414 8.090 45.41 19.016 65.514 32.592 22.378 15.116 42.61 33.546 60.132 54.782 7.836 9.498 7.282 23.11-1.296 31.662-9.834 9.806-26.324 8.854-35.246-1.958-14.564-17.65-31.342-32.946-49.868-45.458-18.54-12.522-39.020-22.264-61.014-29.164 6.418-14 13.69-28.186 21.778-42.456zM206.164 788.15c-67.578 37.424-115.83 40.258-147.516 8.658-19.010-18.958-28.648-46.264-28.648-81.16 0-30.648 7.578-65.268 21.526-101.752 20.256 6.072 39.026 14.842 55.898 26.236 16.142 10.902 30.784 24.256 43.518 39.69 20.114 24.378 57.308 26.304 79.572 4.104 19.596-19.54 20.994-50.492 3.25-71.996-19.352-23.452-41.718-43.822-66.48-60.546-20.564-13.888-42.906-25.234-66.578-33.94 12.294-19.468 25.99-38.96 40.974-58.208 30.642 1.728 72.582 9.66 111.26 35.784 16.144 10.9 30.784 24.254 43.516 39.686 18.908 22.916 52.854 26.286 75.648 7.652 22.96-18.768 26.030-52.696 7.176-75.542-11.916-14.442-25.11-27.846-39.214-39.84-6.308-5.364-15.778-4.602-21.144 1.71-5.368 6.31-4.602 15.778 1.71 21.144 12.764 10.854 24.71 22.992 35.506 36.078 8.382 10.16 7.028 25.002-3.026 33.222-10.082 8.244-25.118 6.664-33.518-3.52-14.564-17.65-31.34-32.944-49.866-45.454-30.384-20.522-66.324-33.728-105.22-38.876 11.898-13.918 24.438-27.624 37.572-41.020 22.24 5.292 43.488 12.968 63.252 22.9 7.282 3.66 16.372 0.826 20.138-6.666 3.72-7.402 0.736-16.418-6.666-20.138-16.448-8.266-33.814-15.086-51.842-20.46 20.994-19.714 42.596-37.988 64.504-54.602 40.132 4.736 75.47 18.248 105.090 40.246 15.638 11.616 29.664 25.61 41.69 41.594 19.002 25.258 56.128 28.8 79.32 7.694 20.474-18.632 23.274-49.482 6.514-71.762-18.276-24.294-39.706-45.646-63.694-63.464-14.43-10.716-29.858-20.17-46.108-28.282 12.574-5.606 25.060-10.55 37.398-14.786 33.264-11.418 63.548-17.094 89.952-17.094 34.372 0 62.16 9.624 81.322 28.734 14.626 14.586 21.736 32.172 21.736 53.764 0 36.1-20.138 83.132-59.858 139.792-19.852 28.318-44.786 61.394-70.436 88.088-89.376 93.010-197.634 211.084-308.228 272.332z"></path>
</svg>
